<svg id="Capa_1" data-name="Capa 1" xmlns="http://www.w3.org/2000/svg" viewBox="0 0 1213.49 457.94"><defs><style>.cls-1{fill:#35aadf;}.cls-2{fill:#0e62a4;}.cls-3{fill:#37aadf;}.cls-4{fill:#1e61ab;}.cls-5{fill:#ed383f;}.cls-6{fill:#1d61ab;}.cls-7{fill:#ed373e;}.cls-8{fill:#2063ad;}.cls-9{fill:#2063ac;}.cls-10{fill:#1f61ac;}.cls-11{fill:#ed3940;}.cls-12{fill:#2364ad;}.cls-13{fill:#2666ae;}.cls-14{fill:#2465ad;}.cls-15{fill:#ed3a41;}.cls-16{fill:#ed393f;}.cls-17{fill:#2969b0;}.cls-18{fill:#2b6cb1;}.cls-19{fill:#ed353c;}.cls-20{fill:#1b5faa;}</style></defs><path class="cls-1" d="M0,385.15c1.47-2.83,2.47-6.07,4.5-8.43,10.27-12,20.78-23.72,31.29-35.48,2.36-2.64,5.09-4.95,7.61-7.45a333,333,0,0,1,66.31-51.27A395.7,395.7,0,0,1,168.47,254c23.33-9,47.54-14.69,72.18-18.74a447.68,447.68,0,0,1,93.15-5.18c36.7,1.68,72.31,8.66,106.46,22.65a410.39,410.39,0,0,1,56.21,27.67,199.83,199.83,0,0,1,35.41,27.17,319.48,319.48,0,0,0,102.66,66c30,12.06,61.14,18.92,93.58,19.13,24.78.16,48.57-4.92,71.55-14.11,4.74-1.9,9.6-3.53,14.44-5.14a41,41,0,0,1,5.47-1c-.92,4.83-4.38,6.28-7.44,7.7-9.48,4.4-19,8.83-28.67,12.67-31.12,12.3-63.69,17.74-96.9,20.27a339.34,339.34,0,0,1-56.67-.34,232.55,232.55,0,0,1-55.82-12.6,339.66,339.66,0,0,1-75.6-37.81c-10.38-6.87-20.8-13.73-30.74-21.21-20.69-15.6-44.18-25.67-68-35a361.48,361.48,0,0,0-70.63-19.52,373.56,373.56,0,0,0-98.39-3.94A387.12,387.12,0,0,0,71,335c-16.26,9.68-32.18,19.88-46.54,32.28-5.21,4.5-10,9.51-15.15,14.07a71.75,71.75,0,0,1-7.5,5.18Z"/><path class="cls-2" d="M107,190.53H70.77c-1.22-4.38-1.83-120.22-.58-128.93h110V9.43H372.68V61.72H483.61V190.17H448c-.31-30.67-.63-61.22-.95-92.55H337.25c-.35-17.61-.69-34.45-1-51.88H217.73c-.15,16.75-.3,33.74-.46,51.39H107Z"/><path class="cls-3" d="M268.46,301.77c5.86-3.2,10.85-2.54,15.59-2.07,46.26,4.62,91.5,13.6,133.87,33.56,16.06,7.56,31.75,16,47.24,24.69,21.5,12.09,42.43,25.2,64,37.16,35,19.43,72.4,31.37,112.64,34.23,28,2,55.5-.31,83-5,10.07-1.73,20.22-3,30.35-4.38a53.51,53.51,0,0,1,7.16-.05c1.34,5.94,1,7.23-3,8.8-19.63,7.74-39,16.29-59.46,21.67-26.3,6.89-53,8.77-80,6.94-43.39-2.94-82.83-17.65-119.66-39.91-14.24-8.6-28-18.13-41.45-27.89-18.22-13.16-36.54-26.15-56.22-37-29.63-16.38-60.2-30.75-92.81-40.24C298.62,309,287.21,307,276,304.31,273.77,303.78,271.65,302.86,268.46,301.77Z"/><path class="cls-4" d="M961.8,215.21H938.61V136.52c6.95,0,13.77-.19,20.58.16,1.37.07,2.64,2.18,4,3.42,13.77-7.17,26.27-8.65,41,4.32a36.53,36.53,0,0,1,26.1-9.57c12.5.28,22.21,7.77,25.19,19.87a31.42,31.42,0,0,1,1.16,7.23c.09,17.56,0,35.12,0,53.1h-23.11c-.14-1.72-.4-3.4-.4-5.08,0-13.8,0-27.59,0-41.39a32.15,32.15,0,0,0-.32-6,8.59,8.59,0,0,0-8.21-7.45c-5.43-.39-10.62.46-15.6,4v56H986.23c-.16-1.67-.44-3.36-.44-5.05,0-13.79,0-27.59,0-41.38-.06-12.36-7-16.91-18.31-12.1-3.82,1.62-5.84,4-5.75,8.6.3,14.23.11,28.47.11,42.71Z"/><path class="cls-5" d="M805,260.85c6.84-1.39,9.73-6.58,11.6-12.48,1-3.15,2.6-4.46,6.45-3.27v14.4h15.65c.16,2.43.25,3.92.4,6.23H823.59c0,11.91-.33,23,.11,34.12.3,7.45,5.92,9.78,12.06,5.6,1.2-.82,2.54-1.45,3.82-2.17,1.4-11.38,4.5-14.82,15.72-17.44,1.94-.46,3.9-.9,5.8-1.49,7.59-2.36,10.24-8.23,7.08-15.55-2.27-5.26-8-5.84-11.51-1.12-1.18,1.61-2,3.49-3.33,5a6.36,6.36,0,0,1-9.48.45,6.28,6.28,0,0,1,.22-9.43,13.18,13.18,0,0,1,4.55-2.7,36,36,0,0,1,25.43.69c6,2.44,9.15,6.59,9,13.32-.22,7.56,0,15.12,0,22.69,0,1.33,0,2.68.13,4,.56,5.33,2.2,6,6.72,2.71.51-.37,1.06-.67,2.13-1.33l3.63,4.62c3.33.34,5.35-1.58,5.41-4.93.22-10.43.28-20.87.1-31.3-.08-4.32-3.45-5.8-7-5.78-1-3,.09-3.95,2.26-4.23,5.27-.66,10.54-1.38,16.07-2.12l2.15,4.43a29.73,29.73,0,0,0,3-1.18,26.31,26.31,0,0,1,20-2.2c7.58,2.18,11.09,6.55,11.2,14.49.13,8.24,0,16.47.06,24.7,0,2.92-.13,6,3.1,7.48,4,1.86,8.24,2.37,12.1-.11a6.22,6.22,0,0,0,2.3-4.48c.24-10.21.24-20.43.15-30.65,0-3.27-1.84-5.26-5.22-5.95-.88-.18-1.51-1.62-2.25-2.48.8-.61,1.53-1.63,2.39-1.77,5.7-.89,11.43-1.59,17.66-2.43.2,2,.5,3.73.5,5.42,0,11.35.11,22.69,0,34,0,4.61.68,8.51,6.07,9.58,2.38.48,2.67,1.93,1.65,4.17h-59.2c-.86-1.93-1.13-3.62,1.49-3.9,5.79-.63,7.13-4.43,7.11-9.4,0-7.79.15-15.58-.09-23.36-.23-7.32-2.94-10.27-9.18-10.78-6.81-.56-12.11,3-12.63,9.88-.69,9.06-.39,18.21-.32,27.32,0,2.94,1.76,4.89,4.75,5.69,1.91.51,4.14,1,2.79,4.81-3.55,0-7.47.23-11.35-.06-6.12-.44-12.37,1.4-18.36-1.17-.45-.19-1.25.3-1.83.6-7.19,3.7-13.71,2.77-19.72-3a23.52,23.52,0,0,1-15.38,5.14c-5.7-.21-10.4-2.07-13.95-6.64-6.76,7.61-15.07,7.6-23.87,5.4-2.1-.52-4.21-.95-6.32-1.43l0-2.47q-.3-21.35-.62-42.75l-6.82-.9C804.3,263.65,804.67,262.25,805,260.85Zm64.83,25.87c-6.55,3.15-11.58,5.46-14.65,10.38a7,7,0,0,0,1.94,9.9c2.91,2,6.68,1.26,9.22-2.06a9.53,9.53,0,0,0,2-4.09C869,296.59,869.31,292.27,869.86,286.72Z"/><path class="cls-6" d="M836.7,175.78c.1-24.25,16.36-39.3,38.85-40.66A58.66,58.66,0,0,1,894.63,137c18.7,5.27,29.19,21,28.14,40.93-.39,7.41-2,14.48-5.94,20.92-4.76,7.75-11.71,12.67-20.13,15.59a50.11,50.11,0,0,1-33.38.18C846.07,208.74,836.62,194.69,836.7,175.78Zm61.84,1.39c-.31-3.18-.33-5.2-.73-7.14-1.81-8.74-8.13-14.43-16.4-14.95-9.22-.57-16.15,3.9-19,12.43a25.87,25.87,0,0,0,.23,17.61c2.84,7.58,8.72,11.67,16.77,11.77,8.23.11,14.23-3.63,17.12-11.18C897.71,182.67,898.06,179.31,898.54,177.17Z"/><path class="cls-6" d="M668.27,215c-10.32,3.42-16.87,1.69-25.81-6.5-2.56,1.69-5.05,3.51-7.71,5a27.06,27.06,0,0,1-23.78,2c-7.91-3-12.44-9.11-13.65-17.49-1.3-9,1.2-16.79,8.66-22.45,7.73-5.88,16.8-7.84,26.27-8.36,2.4-.13,4.81,0,7.21,0,1.86-5.57-.72-9.41-4.49-11.74-7.81-4.82-14.92-.91-22.08,3.35l-11.3-12.5a37.08,37.08,0,0,1,16-9.56,44.86,44.86,0,0,1,22.42-.94c13.66,2.75,22.94,14.11,23.52,28.56.36,9.11.07,18.24.08,27.36,0,3.35-.17,6.71,3.42,8.76a3.83,3.83,0,0,1,1.21,2.8C668.35,207.26,668.27,211.22,668.27,215ZM640,182.9c-6.73-1.41-12.73-.4-16.25,2.58-2.33,2-3.82,4.35-2.92,7.55a7.38,7.38,0,0,0,6.54,5.76c4.23.53,7.7-1.32,11-3.66,2.82-2,1.56-4.8,1.78-7.3A39.17,39.17,0,0,0,640,182.9Z"/><path class="cls-4" d="M1142.22,215.49c-10.5,2.47-18.83.52-25.76-7.32-5.63,5-11.82,8.56-19.5,9.09-11.34.78-21.29-5.44-25.13-16-3.32-9.1.56-19.84,9.5-26.31,7.5-5.42,16.11-7.26,25.13-7.73,2.19-.12,4.4,0,6.5,0,1.63-8.52-2.14-13.51-10-13.75-5.18-.16-8.08.76-15.84,5.12l-11.25-11.7c4.19-5.25,10-8.38,16.36-10.28,9.92-2.95,19.93-2.66,29.33,1.78,9.84,4.65,15.34,12.73,15.64,23.75.28,10,.11,20,.07,30,0,3.21.18,6.16,3.31,8.19a4.66,4.66,0,0,1,1.53,3.29C1142.34,207.41,1142.22,211.18,1142.22,215.49Zm-28.38-32.9a19.07,19.07,0,0,0-16.85,3.73c-3.58,2.76-3.47,7.41,0,10.23,3.67,3,7.69,2.87,11.82,1.09,3.83-1.65,6-4.28,5.39-8.75C1113.9,187,1114,185,1113.84,182.59Z"/><path class="cls-7" d="M736.19,308.44c-7.19,3.38-14.79,4.32-22.68,4.23-15.1-.17-30.21-.05-45.44-.05-.81-2.11-1.17-3.66,1.34-4.29,1.51-.38,3.38-.29,4.46-1.18a23.37,23.37,0,0,0,5-5.73c.75-1.2.64-3,.64-4.57,0-16.9.22-33.8,0-50.69-.13-8-1.41-9-9.37-11.26-1-.3-2.43-1.41-2.57-2.31-.33-2.1,1.43-2.39,3.1-2.38,15.35.09,30.69,0,46,.36,6.13.13,11.77,2.13,16,7,6.63,7.61,6.89,16.35.45,24.09a58.56,58.56,0,0,1-5.48,5.15c3.78,2.28,7.64,3.78,10.32,6.46s4.3,6.62,6.37,10C745.5,292.92,744.25,301.78,736.19,308.44ZM696.28,271c0,8.24,0,15.1,0,22a49.68,49.68,0,0,0,.17,5.32c.56,5.17,2.57,8.49,6.61,8.82,4.54.37,9.47.42,13.72-1,9.32-3,12.83-13.27,9.07-23.86-1.87-5.27-5.35-8.81-10.87-9.61C709.13,271.77,703.18,271.54,696.28,271Zm.23-3.64c5.62-.87,10.67-1.24,15.44-2.58a11.76,11.76,0,0,0,5.95-4.87,15.89,15.89,0,0,0-12.12-24.51c-3-.25-6,0-9.27,0Z"/><path class="cls-8" d="M795.88,84.42h22.9v7.5c0,32.46.11,64.91-.09,97.37,0,6.12,1.34,10.5,8,11.65v14c-16.58,6.08-31.26-2.78-31.44-19.58-.39-36-.14-72-.11-108A12.35,12.35,0,0,1,795.88,84.42Z"/><path class="cls-9" d="M578.75,84.16v8.07q0,49,0,98c0,7.21.52,7.84,7.8,10.79v14.5c-7.64,1.95-14.83,1.54-21.58-1.94-4.79-2.46-7.5-6.9-8.77-12a36.82,36.82,0,0,1-1.07-8.56q-.1-52.32,0-104.64c0-1.08.13-2.16.25-4C563,83.81,570.39,84.15,578.75,84.16Z"/><path class="cls-10" d="M738.62,145.4l-14.48,13.83a42.1,42.1,0,0,0-4.51-3.1,20.64,20.64,0,0,0-5.52-2.16c-3.82-.71-6.5.87-7.44,3.95-.86,2.81.2,5.27,3.6,7,3.76,1.88,7.85,3.12,11.56,5.1,4.08,2.16,8.32,4.34,11.7,7.39,7.88,7.1,8.31,20.05,1.48,28.26-9.51,11.45-25.51,15-40.58,8.85-5.28-2.17-10.62-4.49-14.5-9.88l14.16-13.19c1.94,1.55,3.58,3,5.37,4.26a13.81,13.81,0,0,0,11.43,2.16,6.41,6.41,0,0,0,5.12-5.5c.47-2.82-1.36-4.59-3.68-5.72-2.59-1.26-5.28-2.31-8-3.42-2.45-1-5-1.82-7.38-3-12.2-6.34-14.54-12.93-14.23-22.5.33-9.88,8.9-18.73,16.81-21.16A37.69,37.69,0,0,1,728.69,139C732,140.7,734.92,143,738.62,145.4Z"/><path class="cls-10" d="M1154.59,205.35l13.55-14c1.95,1.44,3.7,2.74,5.45,4a13.82,13.82,0,0,0,10,2.75,6.61,6.61,0,0,0,6.1-5.3c.77-3.13-1.08-5.15-3.65-6.35-4.83-2.23-9.73-4.31-14.66-6.33-9.18-3.74-14.14-10.39-14.16-20.43,0-10.42,5.3-18.87,14.78-22.35,14.62-5.37,27.85-2.54,40.4,8.12L1199.17,159c-3.7-1.79-6.74-3.64-10-4.76-3.62-1.24-6.69.27-7.82,3.14s-.18,5.31,3,7.26a64.7,64.7,0,0,0,7.76,3.78c2.23,1,4.59,1.67,6.81,2.68,10.78,4.9,15.06,11.48,14.54,22.21-.47,9.91-6.92,19-16.69,21.91C1181.16,219.78,1166.92,217.22,1154.59,205.35Z"/><path class="cls-11" d="M1031.73,300.15c0-1.35.54-2.87.09-4-7.84-20.49,11.4-39.49,32.27-36.42a30.06,30.06,0,0,1,18.48,9.77c12.3,13.65,7.33,34.09-9.68,41.53-14.06,6.16-29.82,2-37.85-9.2-.72-1-1.11-3.35-3.36-1.8Zm12-14.26c.12,7.91,2.06,14.93,8.4,20.21,5.06,4.21,11.67,4.21,16.11-.61a27.14,27.14,0,0,0-1-38.31c-4.54-4.44-10.77-4.28-15.61-.18C1045.8,272,1043.9,278.59,1043.78,285.89Z"/><path class="cls-12" d="M809.25,74.93c-17.55.81-28.57-14.18-28.65-27.08s10.76-27.75,28.33-27.51c16.6.22,28.2,11.11,28.29,27.16S825.81,74.85,809.25,74.93Zm18.07-27.18c0-11.66-7.14-19.33-18.11-19.37S790.93,36,790.89,47.55,798,66.84,809,66.87,827.29,59.36,827.32,47.75Z"/><path class="cls-12" d="M939.09,20.4c16.84,0,27.76,10.81,27.75,27.38,0,16.39-11.16,27.2-28,27.15s-27.73-10.79-27.7-27.36S922.23,20.36,939.09,20.4Zm-18.6,27.17c0,11.58,7.16,19.18,18.27,19.3s19.19-8.22,19-19.47c-.21-13.47-10-19.11-18.84-18.92C927.54,28.73,920.29,36,920.49,47.57Z"/><path class="cls-13" d="M704.73,31.86c-1.42-1.35-2.83-2.7-4.24-4,9.54-11.6,29.07-9.55,35.2,3.58a18.2,18.2,0,0,1,1.18,7.12c.15,7.11.06,14.22.06,21.33,0,3.11-.11,6,3.05,8.25,1.22.86,1.08,3.64,1.62,5.79-6,1.61-10.05.16-13.44-4.11C723.11,73,718,75.33,712,75c-7.1-.45-12.12-4.08-13.89-10.39s.49-12.41,6-16.36c5.1-3.63,11-4.47,17-5.12,1.73-.18,3.49,0,5.61,0,.87-5.09,1.32-9.91-3.1-12.95C717.25,25.71,711,28.53,704.73,31.86Zm22.53,18.26c-6.59-1.36-11.84.18-16.78,2.81-3.26,1.73-4.44,4.94-3.6,8.49.8,3.4,2.93,5.5,6.47,5.62a28,28,0,0,0,7.88-.51c4.53-1.17,5.93-3.35,6-8.13C727.3,55.77,727.26,53.14,727.26,50.12Z"/><path class="cls-13" d="M643.07,21.39c3.76.26,7.5-1.67,9.67,2.56,3.14-1,6.19-2.39,9.39-3,13.4-2.51,24.07,3.56,25.74,19.69,1.12,10.74.22,21.7.22,33h-9.5V66.62c0-8,0-16,0-24-.07-5.69-1.8-10.69-7.54-12.94a16.84,16.84,0,0,0-17,2.39c-1.38,1.05-2,3.82-2,5.82-.2,9.55-.09,19.11-.09,28.66v7.09h-8.82Z"/><path class="cls-14" d="M598.68,31.91l-4.4-3.73c.6-1.17.75-1.9,1.2-2.27,7.36-6.12,15.77-7,24.46-3.95,6.78,2.38,10,7.9,10.17,15,.16,7.34,0,14.68.06,22,0,3.49-.56,7,3.42,9.38,1.06.63.84,3.41,1.25,5.39-5.87,2.06-9.62-.35-13-3.9-5,3.29-10.12,5.24-15.88,5.07-7.12-.21-12.2-3.94-14-10.24-1.82-6.47.29-12.41,5.87-16.4,4.88-3.48,10.51-4.66,16.32-5.17,2-.17,4,0,6.53,0,.87-5,1.22-9.88-3.09-12.85C611.39,25.9,605,28.08,598.68,31.91Zm22.66,18c-6.71-.75-12.32-.27-17.3,3.18-3.22,2.23-4.34,5.45-3.36,8.62,1.05,3.35,3.51,5.31,7.4,5.51A25,25,0,0,0,614,66.8c5.51-1.12,7.28-3.39,7.34-9.08C621.36,55.32,621.34,52.93,621.34,49.9Z"/><path class="cls-15" d="M1031.73,300.15l0-.15c-2.72,5.38-5.57,10.55-12,12.46a32.28,32.28,0,0,1-22.16-1.25c-10.76-4.47-16.26-17-13.55-29.62,4.7-22,27.46-25.91,41.26-19.36a12.12,12.12,0,0,1,4.07,3.33,6.23,6.23,0,0,1-.72,8.93,6.94,6.94,0,0,1-9-1.27,18.58,18.58,0,0,1-2.25-4.05c-2.65-5.78-7-7-12-2.94a24.88,24.88,0,0,0-5.22,6c-5.43,8.59-4,22,2.51,29.91,6,7.28,17.7,9.38,23.59-1.72a21.6,21.6,0,0,1,1.3-1.87Z"/><path class="cls-16" d="M746.12,283.25c0-2.44.14-4.88.08-7.31-.17-7.81-.54-8.3-8.6-11.38,1.13-1.19,1.87-2.7,2.87-2.9,5-1,10-1.6,15.07-2.35l2.56,4.8c7.65-3.62,15-8.11,23-1.11l3.39-1.08c0,1.25,0,2.5,0,3.75-1,.65-2.22,1.09-2.85,2-3.06,4.36-5.87,5-9.79,1.93-7.07-5.5-9.19-5.08-11.68,3.62-1.37,4.8-1.43,10-1.76,15.05-.24,3.75.12,7.53.05,11.3-.07,4.3,1.59,7.14,5.91,8.44,2.34.71,2.26,1,2.65,4.34H738v-3.66c6.79-1,8-1.76,8.39-7.79C746.78,295,746.25,289.13,746.12,283.25Z"/><path class="cls-17" d="M585.5,276.21V258.73h7.42c.17,1.79.46,3.48.47,5.17,0,11.76,0,23.52,0,35.28,0,3.22-.76,6.64,2.46,9.14.53.41.07,2.08.07,3.35-4.44,1.93-7.72.26-10.68-3.39-4.77,3.12-9.8,5.12-15.58,3.88-3.77-.82-7.14-2.24-9.75-5.26-6-6.91-6.56-19-1.25-26.78C563.85,272.59,572,271.3,585.5,276.21Zm-.37,16.17c-.34-4.76-1.46-9.75-6.56-12.44-4-2.12-8.21-1.6-12,.76-4.7,2.93-5.52,7.69-5.4,12.75.11,4.9,1.51,9.11,6.22,11.58C576.3,309.71,585,303.78,585.13,292.38Z"/><path class="cls-13" d="M551.4,67.49l4.73-5.07c4,3,8.11,5.34,13.29,4.74,2.83-.33,5.15-1.2,6.75-3.62,2.25-3.4,1.87-7.06-1.44-9.38a41,41,0,0,0-7.14-3.47c-2.43-1.06-5.05-1.77-7.38-3-5.82-3.11-8.54-8.39-7.64-14.23,1.06-6.81,5.3-11.54,11.91-12.64,7.53-1.26,14.49,0,20.52,6L580.3,32c-1.65-.89-3-2-4.63-2.42a31.67,31.67,0,0,0-8.41-1.08c-3,.11-4.7,2.32-5.5,5.08a5.88,5.88,0,0,0,2.68,6.93,34.13,34.13,0,0,0,5.34,2.67c2.84,1.24,5.81,2.22,8.59,3.59,5.18,2.53,8.48,6.5,8.25,12.55a15.32,15.32,0,0,1-8.87,13.84C571.13,76.57,556.36,75.36,551.4,67.49Z"/><path class="cls-8" d="M751,28.79,744.68,28V21.69l6-.72c.23-3.79.44-7.24.67-11h9c.24,3.7.45,7.15.7,11.07l13.55.63v6.4l-13.76.63c0,10.29-.3,20.21.12,30.11.23,5.43,3.94,8.2,9.38,8.28,1.3,0,2.6-.18,4.35-.3.1,1.2.25,2.24.25,3.28s-.13,2.16-.2,3.07c-11.91,5-23-1.62-23.59-14-.36-7.53-.1-15.09-.11-22.63C751,34.13,751,31.73,751,28.79Z"/><path class="cls-18" d="M636.25,294.68H606c1.26,12.37,12.25,15.3,25.17,7.14l3.51,3a23.8,23.8,0,0,1-2.3,2.65,21.3,21.3,0,0,1-24.24,2.34c-7.15-4.19-10.8-12.89-9.2-21.9,1.72-9.65,9.53-16.33,19-16.27,9.09.05,15.93,6.06,17.78,15.79A65.4,65.4,0,0,1,636.25,294.68Zm-30.61-5.06h23.53c-1.31-8.63-4.78-12.17-11.28-12.25C611,277.29,607.1,281,605.64,289.62Z"/><path class="cls-19" d="M784.51,265.67c0-1.25,0-2.5,0-3.75l17.24-2.66c.18,2.41.5,4.82.51,7.24.07,10.18,0,20.36.08,30.54.08,9.17.36,9.44,8.95,11.95l0,2.47c-.5.36-1,1-1.5,1-9.26.06-18.52,0-28,0-.64-2.06-1.07-3.85,1.55-4.1,5.85-.55,7.06-4.4,7-9.29,0-8.63,0-17.25-.09-25.88C790.29,269.32,788.84,266.38,784.51,265.67Z"/><path class="cls-12" d="M857.18,25.76c8.11-5.11,9.52-5.5,16.48-4.57.15,2,.31,4.16.5,6.78-2.33.19-4.46.23-6.55.55-7.71,1.18-11.14,5.17-11.14,12.88,0,10.63,0,21.25,0,32.3h-9.22v-52h8.59C856.26,23,856.64,24.15,857.18,25.76Z"/><path class="cls-12" d="M651.3,312c-7.32.4-9.62-1.18-9.68-7.15-.13-14.83,0-29.68.06-44.52,0-.38.33-.77.68-1.54h5.91c.15,1.79.4,3.5.41,5.2,0,11.74,0,23.48,0,35.23,0,3.25-.61,6.64,2.51,9.16C651.75,308.78,651.3,310.41,651.3,312Z"/><path class="cls-20" d="M895.22,21.57V73.63l-7.14.35c-1.5-4.77-1.93-42.42-.63-52.18,1.17-.13,2.43-.34,3.7-.4C892.25,21.35,893.36,21.48,895.22,21.57Z"/><path class="cls-15" d="M859,254.59l12.89-19.19h16.71c-1.69,3.36-4.61,4.95-7,7-3.86,3.32-8.08,6.24-11.84,9.67C866.94,254.67,864,255.84,859,254.59Z"/><path class="cls-15" d="M796.18,243.53a6.54,6.54,0,0,1-6.95-6.4,6.93,6.93,0,0,1,6.69-6.85,7.11,7.11,0,0,1,7,6.6A6.62,6.62,0,0,1,796.18,243.53Z"/><path class="cls-11" d="M973,243.5c-4.09.05-6.9-2.54-7-6.42a6.68,6.68,0,0,1,6.77-6.75c4.25,0,7.56,3.06,7.42,6.9S977.21,243.46,973,243.5Z"/><path class="cls-13" d="M891.11,11.75a6,6,0,0,1-5.65-6.1,5.64,5.64,0,0,1,6-5.65,5.72,5.72,0,0,1,5.67,6A6.08,6.08,0,0,1,891.11,11.75Z"/></svg>