<svg id="Capa_1" data-name="Capa 1" xmlns="http://www.w3.org/2000/svg" viewBox="0 0 116.37 40.26"><defs><style>.cls-1{fill:#154360;}.cls-1,.cls-2{fill-rule:evenodd;}.cls-2,.cls-3{fill:#a93226;}</style></defs><path class="cls-1" d="M9,37.06c2.9,1.07,7.32-3.34,8.74-5.2L22,26.56C25.08,22.68,31.76,14.29,35.14,11A21.4,21.4,0,0,1,37.72,8.8c1.2-.82,1.64-1,2.34-2.43,1-2,2.49-4.51,3.18-6.37-4,.09-13.53,8.86-15.77,11.73L15.11,26.9c-2.18,2.91-5.9,8.11-9.59,8.58Z"/><path class="cls-1" d="M0,8.77c1.32,1.64,1,5.11,1,7.73s.41,5.48.47,8.13a26.53,26.53,0,0,0,.92,7.51c1,3.12,1.8,3.25,5.11,2.46a12.12,12.12,0,0,1-.92-3.37C6.21,27.82,6.12,23,6,19.46c-.18-7.82.51-7.16-2.93-9.75A3.55,3.55,0,0,0,0,8.77Z"/><path class="cls-2" d="M12.05,38.2c1.86,1.35,3,.72,4.86-.32a12.26,12.26,0,0,0,3.53-3.15L28,25.52c1.48-1.8,4.83-6.09,6.21-7.19a5.1,5.1,0,0,0,1.55-1.68,37.56,37.56,0,0,0,1.92-4.85c-2.14.69-4.85,4.85-6.56,6.49A14.78,14.78,0,0,0,29.59,20l-1.46,1.79L19.3,32.46c-1.16,1.19-1.76,2.46-3.06,3.43C13.28,38.13,13.41,37.35,12.05,38.2Z"/><path class="cls-1" d="M15.46,39.74c3.05.82,3.09.95,6.87-1.76,2.43-1.77,6.09-7.16,9-10.35,1.51-1.7,1.07-.13,1.74-3.06A35.09,35.09,0,0,0,34,20.88c-1,.66-3.47,3.75-4.41,4.83l-6.44,7.72c-.66.89-1.39,1.64-2,2.56C19.18,38.89,15.87,39.46,15.46,39.74Z"/><path class="cls-2" d="M9,33.24c2.33-1.16,1.45-2.9,1.29-3.78-1-6.18-.15-9.56-.44-12.87-.09-1.13-.09-.88-1.13-2-.51-.5-.38-.47-1-.75C8.11,19.08,7.54,29,9,33.24Z"/><path class="cls-1" d="M11.51,17.73c.1,2.05-.16,4.19-.06,6.34.06,2,.28,3.94.5,5.89a8,8,0,0,0,2-2.33C15,25.86,13.82,18.86,11.51,17.73Z"/><path class="cls-1" d="M43,18.34a3.1,3.1,0,0,1,1.46.67,2.07,2.07,0,0,1,.67,1.55,2.19,2.19,0,0,1-.44,1.33,2.57,2.57,0,0,1-1.21.95,7,7,0,0,1-2.36.29H36.69v-.25H37a.93.93,0,0,0,.84-.38,2.16,2.16,0,0,0,.16-1V15.39a1.85,1.85,0,0,0-.2-1.09A1,1,0,0,0,37,14h-.33v-.25h4a8.08,8.08,0,0,1,1.82.17,3,3,0,0,1,1.59.88,2.18,2.18,0,0,1,.54,1.46,1.89,1.89,0,0,1-.44,1.25A2.42,2.42,0,0,1,43,18.34Zm-3.62-.4A4.1,4.1,0,0,0,40,18c.21,0,.46,0,.71,0a4.27,4.27,0,0,0,1.53-.21,1.8,1.8,0,0,0,.77-.67,2,2,0,0,0,.27-1,1.81,1.81,0,0,0-.67-1.4,3,3,0,0,0-2-.57,4.3,4.3,0,0,0-1.24.15Zm0,4.52a7.27,7.27,0,0,0,1.59.19,2.78,2.78,0,0,0,1.9-.57,1.78,1.78,0,0,0,.67-1.4,1.93,1.93,0,0,0-.31-1,2,2,0,0,0-1-.8,4,4,0,0,0-1.67-.29h-.74l-.48.06Zm8.83-5.86V18c.54-.94,1.06-1.43,1.63-1.43a.93.93,0,0,1,.62.23.75.75,0,0,1,.26.55.68.68,0,0,1-.19.46.59.59,0,0,1-.42.19.9.9,0,0,1-.54-.25,1.06,1.06,0,0,0-.44-.23.48.48,0,0,0-.28.12,3.66,3.66,0,0,0-.64.94v3a1.94,1.94,0,0,0,.14.8.8.8,0,0,0,.32.31,1.25,1.25,0,0,0,.64.13v.25H46.05v-.25a1.21,1.21,0,0,0,.71-.15.59.59,0,0,0,.26-.35,3.89,3.89,0,0,0,0-.67V19.26A6.33,6.33,0,0,0,47,17.94a.46.46,0,0,0-.16-.31.45.45,0,0,0-.3-.11,1.7,1.7,0,0,0-.48.11L46,17.38l1.9-.78Zm4.47-3.32a.73.73,0,0,1,.5.21.75.75,0,0,1,.21.5.72.72,0,0,1-.71.71.67.67,0,0,1-.48-.21A.65.65,0,0,1,52,14a.73.73,0,0,1,.19-.5A.75.75,0,0,1,52.66,13.28Zm.59,3.32v5.11a2.19,2.19,0,0,0,.08.77.43.43,0,0,0,.25.29,1.06,1.06,0,0,0,.63.11v.25H51.13v-.25a1.24,1.24,0,0,0,.61-.09A.6.6,0,0,0,52,22.5a2.29,2.29,0,0,0,.11-.79V19.26A7.45,7.45,0,0,0,52,17.92c0-.14-.08-.25-.16-.29a.4.4,0,0,0-.28-.11,1.87,1.87,0,0,0-.48.11L51,17.38l1.9-.78Zm3.57-1.9v2.09h1.49v.46l-1.49,0v4.1a1.31,1.31,0,0,0,.19.84.55.55,0,0,0,.46.21.83.83,0,0,0,.44-.13.94.94,0,0,0,.33-.44h.25a2.18,2.18,0,0,1-.66,1,1.67,1.67,0,0,1-.92.33,1.47,1.47,0,0,1-.63-.16,1,1,0,0,1-.44-.53,2.3,2.3,0,0,1-.15-1V17.25h-1V17a2.55,2.55,0,0,0,.77-.52,3.58,3.58,0,0,0,.71-.86,6.79,6.79,0,0,0,.44-1Zm5.67,7.51a13.16,13.16,0,0,1-1.22.88,1.8,1.8,0,0,1-.79.16,1.45,1.45,0,0,1-1.09-.44A1.63,1.63,0,0,1,59,21.62a1.45,1.45,0,0,1,.2-.79,2.76,2.76,0,0,1,1-.9,14.79,14.79,0,0,1,2.32-1v-.26a2,2,0,0,0-.3-1.29,1.09,1.09,0,0,0-.87-.36.94.94,0,0,0-.69.25.7.7,0,0,0-.25.53v.41a.72.72,0,0,1-.15.49.57.57,0,0,1-.44.16.53.53,0,0,1-.42-.16.82.82,0,0,1-.16-.51,1.41,1.41,0,0,1,.6-1.08,2.63,2.63,0,0,1,1.72-.51,2.94,2.94,0,0,1,1.38.3,1.14,1.14,0,0,1,.6.67,3.36,3.36,0,0,1,.13,1.21v2.13a9.89,9.89,0,0,0,0,1.11.47.47,0,0,0,.1.27.3.3,0,0,0,.19.09.35.35,0,0,0,.21-.07,4.15,4.15,0,0,0,.54-.5v.4c-.5.69-1,1-1.48,1A.69.69,0,0,1,62.7,23,1.46,1.46,0,0,1,62.49,22.21Zm0-.44V19.34c-.69.3-1.15.48-1.36.61a2,2,0,0,0-.77.63,1.15,1.15,0,0,0-.23.73,1.09,1.09,0,0,0,.29.81.86.86,0,0,0,.69.34A2.5,2.5,0,0,0,62.49,21.77Zm.75-8.24-2.05,2.38H61l.73-2.38Zm3.81,4.41a3,3,0,0,1,2.13-1.34,1.55,1.55,0,0,1,.88.26,1.74,1.74,0,0,1,.6.85A3.88,3.88,0,0,1,70.81,19v2.72a1.94,1.94,0,0,0,.1.81.56.56,0,0,0,.23.25,1.16,1.16,0,0,0,.63.11v.25H68.63v-.25h.15a1.06,1.06,0,0,0,.61-.13.73.73,0,0,0,.25-.4,4.17,4.17,0,0,0,0-.64V19.09a2.56,2.56,0,0,0-.23-1.25.79.79,0,0,0-.75-.4,2.22,2.22,0,0,0-1.63.9v3.37a2.73,2.73,0,0,0,.08.79.59.59,0,0,0,.27.29,1.53,1.53,0,0,0,.69.09v.25H64.93v-.25h.15a.74.74,0,0,0,.65-.25,1.62,1.62,0,0,0,.17-.92V19.34A8.09,8.09,0,0,0,65.85,18a.57.57,0,0,0-.16-.33.44.44,0,0,0-.28-.11,1.59,1.59,0,0,0-.46.11l-.1-.25,1.9-.78h.3Zm6.85-4.66a.67.67,0,0,1,.69.71.75.75,0,0,1-.18.5.72.72,0,0,1-1.22-.5.8.8,0,0,1,.21-.5A.77.77,0,0,1,73.9,13.28Zm.57,3.32v5.11a2.05,2.05,0,0,0,.1.77.43.43,0,0,0,.25.29,1,1,0,0,0,.61.11v.25H72.36v-.25a1.26,1.26,0,0,0,.62-.09.6.6,0,0,0,.25-.29,2.16,2.16,0,0,0,.09-.79V19.26c0-.69,0-1.13,0-1.34s-.09-.25-.17-.29a.41.41,0,0,0-.27-.11,1.7,1.7,0,0,0-.48.11l-.09-.25,1.91-.78Zm7.15,4.12a3.5,3.5,0,0,1-1,1.93,2.48,2.48,0,0,1-1.66.67,2.41,2.41,0,0,1-1.88-.9A3.55,3.55,0,0,1,76.27,20a3.25,3.25,0,0,1,.9-2.42,2.79,2.79,0,0,1,2.13-.95,2.27,2.27,0,0,1,1.52.51,1.35,1.35,0,0,1,.61,1,.57.57,0,0,1-.17.42.71.71,0,0,1-.48.17.66.66,0,0,1-.6-.28A.85.85,0,0,1,80,17.9a.88.88,0,0,0-.27-.63,1,1,0,0,0-.67-.21,1.35,1.35,0,0,0-1.11.51,2.68,2.68,0,0,0-.56,1.79,3.73,3.73,0,0,0,.54,2,1.72,1.72,0,0,0,1.5.88,2,2,0,0,0,1.24-.46,3.1,3.1,0,0,0,.73-1.17Zm4-4.12a2.77,2.77,0,0,1,2.3,1.09,3.31,3.31,0,0,1,.76,2.16,4.09,4.09,0,0,1-.42,1.71,3,3,0,0,1-1.13,1.32,3,3,0,0,1-1.59.44,2.71,2.71,0,0,1-2.28-1.13A3.54,3.54,0,0,1,82.56,20,3.89,3.89,0,0,1,83,18.28,2.85,2.85,0,0,1,84.13,17,3,3,0,0,1,85.63,16.6Zm-.23.46a1.51,1.51,0,0,0-.73.21,1.43,1.43,0,0,0-.58.78,3.25,3.25,0,0,0-.23,1.4,4.73,4.73,0,0,0,.54,2.38,1.65,1.65,0,0,0,1.44,1A1.3,1.3,0,0,0,87,22.27a3.16,3.16,0,0,0,.44-1.9,4.38,4.38,0,0,0-.73-2.66A1.47,1.47,0,0,0,85.4,17.06Z"/><path class="cls-3" d="M40,26.3v3.81h-.3a4.59,4.59,0,0,0-.53-1.74,2.75,2.75,0,0,0-1.07-1A3,3,0,0,0,36.61,27a2,2,0,0,0-1.4.52,1.55,1.55,0,0,0-.55,1.17,1.39,1.39,0,0,0,.35.92,8.74,8.74,0,0,0,2.4,1.63,17.21,17.21,0,0,1,2.11,1.27,3.31,3.31,0,0,1,.87,1,2.86,2.86,0,0,1-.67,3.42,3.5,3.5,0,0,1-2.5.91,5.14,5.14,0,0,1-.9-.07,10.36,10.36,0,0,1-1-.3,4.88,4.88,0,0,0-1-.26.43.43,0,0,0-.32.13,1,1,0,0,0-.18.5h-.3V34.05h.3a5.38,5.38,0,0,0,.57,1.78,2.72,2.72,0,0,0,1.1,1,3.36,3.36,0,0,0,1.61.39,2.26,2.26,0,0,0,1.6-.54,1.64,1.64,0,0,0,.59-1.27,1.71,1.71,0,0,0-.22-.82,2.46,2.46,0,0,0-.69-.77c-.22-.16-.79-.51-1.74-1a18.09,18.09,0,0,1-2-1.26,3.52,3.52,0,0,1-.91-1,2.66,2.66,0,0,1-.3-1.26,2.69,2.69,0,0,1,.91-2,3.24,3.24,0,0,1,2.31-.86,4.64,4.64,0,0,1,1.87.43,1.81,1.81,0,0,0,.64.21.49.49,0,0,0,.34-.13,1,1,0,0,0,.22-.51Z"/><path class="cls-3" d="M46.33,36.51a12.79,12.79,0,0,1-1.44,1,2.18,2.18,0,0,1-.94.2,1.65,1.65,0,0,1-1.27-.53,1.94,1.94,0,0,1-.5-1.39,1.8,1.8,0,0,1,.24-.94,3.34,3.34,0,0,1,1.16-1,18,18,0,0,1,2.75-1.19v-.29A2.41,2.41,0,0,0,46,30.82a1.29,1.29,0,0,0-1-.41,1.17,1.17,0,0,0-.81.27.87.87,0,0,0-.31.64l0,.47a.86.86,0,0,1-.19.58.69.69,0,0,1-.5.2.62.62,0,0,1-.49-.21.82.82,0,0,1-.2-.58,1.66,1.66,0,0,1,.72-1.28,3.11,3.11,0,0,1,2-.59,3.48,3.48,0,0,1,1.62.33,1.57,1.57,0,0,1,.71.79,4.37,4.37,0,0,1,.15,1.43V35a11,11,0,0,0,0,1.31.57.57,0,0,0,.13.32.37.37,0,0,0,.22.08.46.46,0,0,0,.23-.06,4.61,4.61,0,0,0,.65-.59v.46c-.6.81-1.18,1.22-1.74,1.22a.81.81,0,0,1-.63-.28A1.45,1.45,0,0,1,46.33,36.51Zm0-.53V33.14a14.2,14.2,0,0,0-1.59.69,2.81,2.81,0,0,0-.92.75,1.46,1.46,0,0,0-.27.85,1.35,1.35,0,0,0,.35,1,1,1,0,0,0,.8.39A3,3,0,0,0,46.33,36Z"/><path class="cls-3" d="M51.67,31.49a3.51,3.51,0,0,1,2.49-1.58,1.74,1.74,0,0,1,1.05.31,1.93,1.93,0,0,1,.7,1,4.63,4.63,0,0,1,.18,1.5V35.9a2.47,2.47,0,0,0,.12,1,.59.59,0,0,0,.28.32,1.6,1.6,0,0,0,.74.12v.29H53.55v-.29h.15a1.29,1.29,0,0,0,.73-.16.86.86,0,0,0,.29-.47,5.14,5.14,0,0,0,0-.76v-3a3.21,3.21,0,0,0-.26-1.48,1,1,0,0,0-.89-.46A2.66,2.66,0,0,0,51.67,32V35.9a2.77,2.77,0,0,0,.09.93.76.76,0,0,0,.31.35,2,2,0,0,0,.81.11v.29H49.2v-.29h.16a.89.89,0,0,0,.77-.29,2.12,2.12,0,0,0,.2-1.1V33.13a12.12,12.12,0,0,0-.06-1.63.71.71,0,0,0-.19-.4.53.53,0,0,0-.34-.11,1.56,1.56,0,0,0-.54.12l-.13-.29,2.25-.91h.35Z"/><path class="cls-3" d="M71,34.53l.27.06-.94,3H61.8v-.3h.41a1.09,1.09,0,0,0,1-.46,2.47,2.47,0,0,0,.18-1.2V28.5a2.31,2.31,0,0,0-.23-1.29,1.2,1.2,0,0,0-.95-.36H61.8v-.3h5v.3a3,3,0,0,0-1.23.17.9.9,0,0,0-.48.43A3.45,3.45,0,0,0,65,28.69v6.93a2.22,2.22,0,0,0,.13.93.58.58,0,0,0,.3.25,5.55,5.55,0,0,0,1.27.08h.8a5.61,5.61,0,0,0,1.78-.19,2.25,2.25,0,0,0,.94-.66A5.53,5.53,0,0,0,71,34.53Z"/><path class="cls-3" d="M75.8,29.91a3.31,3.31,0,0,1,2.72,1.29,3.94,3.94,0,0,1,.87,2.52,4.74,4.74,0,0,1-.48,2,3.55,3.55,0,0,1-1.32,1.55,3.59,3.59,0,0,1-1.88.52A3.16,3.16,0,0,1,73,36.47a4.17,4.17,0,0,1-.84-2.54,4.5,4.5,0,0,1,.51-2A3.57,3.57,0,0,1,74,30.39,3.48,3.48,0,0,1,75.8,29.91Zm-.25.53a1.62,1.62,0,0,0-.87.26,1.81,1.81,0,0,0-.7.89,4.31,4.31,0,0,0-.27,1.65,5.78,5.78,0,0,0,.65,2.81,1.92,1.92,0,0,0,1.7,1.18,1.59,1.59,0,0,0,1.3-.65,3.71,3.71,0,0,0,.51-2.24A5.09,5.09,0,0,0,77,31.22,1.76,1.76,0,0,0,75.55,30.44Z"/><path class="cls-3" d="M82.66,29.91v1.68q.95-1.68,1.92-1.68a1,1,0,0,1,.74.27.86.86,0,0,1,.3.63.73.73,0,0,1-.22.54.65.65,0,0,1-.5.22,1.07,1.07,0,0,1-.64-.28,1,1,0,0,0-.52-.28.47.47,0,0,0-.32.16,4,4,0,0,0-.76,1.1v3.57a2.22,2.22,0,0,0,.16.93.83.83,0,0,0,.37.37,1.63,1.63,0,0,0,.78.15v.29H80.15v-.29a1.6,1.6,0,0,0,.85-.18.72.72,0,0,0,.28-.42,3.91,3.91,0,0,0,0-.79V33a13.39,13.39,0,0,0,0-1.55.57.57,0,0,0-.2-.36.51.51,0,0,0-.35-.12,1.62,1.62,0,0,0-.57.12l-.08-.29,2.25-.91Z"/><path class="cls-3" d="M87.28,32.94a3.87,3.87,0,0,0,.81,2.6,2.45,2.45,0,0,0,1.91.94,2.07,2.07,0,0,0,1.27-.4,3,3,0,0,0,.91-1.38l.25.16a3.88,3.88,0,0,1-1,2,2.67,2.67,0,0,1-2.06.92,3,3,0,0,1-2.3-1.05,4,4,0,0,1-1-2.81,4.22,4.22,0,0,1,1-3,3.2,3.2,0,0,1,2.46-1.07,2.73,2.73,0,0,1,2.05.83,3,3,0,0,1,.81,2.21Zm0-.48h3.45a3.44,3.44,0,0,0-.17-1,1.6,1.6,0,0,0-.61-.72,1.56,1.56,0,0,0-.84-.26A1.7,1.7,0,0,0,87.9,31,2.26,2.26,0,0,0,87.28,32.46Z"/><path class="cls-3" d="M95.59,31.49a3.53,3.53,0,0,1,2.5-1.58,1.78,1.78,0,0,1,1,.31,2.06,2.06,0,0,1,.7,1,5,5,0,0,1,.17,1.5V35.9a2.47,2.47,0,0,0,.12,1,.6.6,0,0,0,.29.32,1.52,1.52,0,0,0,.73.12v.29H97.47v-.29h.15a1.29,1.29,0,0,0,.73-.16.81.81,0,0,0,.29-.47,5.14,5.14,0,0,0,0-.76v-3a3.08,3.08,0,0,0-.26-1.48,1,1,0,0,0-.89-.46A2.66,2.66,0,0,0,95.59,32V35.9a2.77,2.77,0,0,0,.09.93.82.82,0,0,0,.31.35,2,2,0,0,0,.81.11v.29H93.12v-.29h.16a.88.88,0,0,0,.77-.29,2.12,2.12,0,0,0,.2-1.1V33.13a12.12,12.12,0,0,0-.06-1.63.65.65,0,0,0-.19-.4.51.51,0,0,0-.34-.11,1.56,1.56,0,0,0-.54.12L93,30.82l2.24-.91h.35Z"/><path class="cls-3" d="M108.22,35.29l-.09,2.29h-6.57v-.29l4.94-6.59h-2.44a3.22,3.22,0,0,0-1,.1.88.88,0,0,0-.4.39,2.46,2.46,0,0,0-.25,1h-.32l0-2.07h6.25v.3l-5,6.6h2.71a3,3,0,0,0,1.16-.14,1,1,0,0,0,.49-.5,3.73,3.73,0,0,0,.22-1.1Z"/><path class="cls-3" d="M112.78,29.91a3.28,3.28,0,0,1,2.71,1.29,3.89,3.89,0,0,1,.88,2.52,4.74,4.74,0,0,1-.48,2,3.42,3.42,0,0,1-3.2,2.07A3.16,3.16,0,0,1,110,36.47a4.17,4.17,0,0,1-.84-2.54,4.5,4.5,0,0,1,.51-2,3.35,3.35,0,0,1,3.09-2Zm-.25.53a1.62,1.62,0,0,0-.87.26,1.81,1.81,0,0,0-.7.89,4.31,4.31,0,0,0-.27,1.65,5.78,5.78,0,0,0,.65,2.81,1.92,1.92,0,0,0,1.7,1.18,1.59,1.59,0,0,0,1.3-.65,3.71,3.71,0,0,0,.51-2.24,5.09,5.09,0,0,0-.85-3.12A1.77,1.77,0,0,0,112.53,30.44Z"/></svg>